<svg width="110" height="110" viewBox="0 0 110 110" fill="none" xmlns="http://www.w3.org/2000/svg">
<path d="M9.28662 10.0591H30.0908L35.7074 69.0582L86.3546 69.0582L90.8919 37.2895H42.6413V28.2127H90.8919C96.4154 28.2127 100.658 33.1047 99.8775 38.5728L95.3402 70.3416C94.7016 74.8134 90.8718 78.135 86.3546 78.135H35.7074C31.0276 78.135 27.1149 74.5771 26.6714 69.9184L21.8371 19.1359H9.28662V10.0591Z" fill="url(#paint0_linear)"/>
<path d="M50.132 91.7503C50.132 96.7633 46.0682 100.827 41.0552 100.827C36.0422 100.827 31.9784 96.7633 31.9784 91.7503C31.9784 86.7373 36.0422 82.6735 41.0552 82.6735C46.0682 82.6735 50.132 86.7373 50.132 91.7503Z" fill="url(#paint1_linear)"/>
<path d="M77.3625 100.731C82.3755 100.731 86.4393 96.6677 86.4393 91.6547C86.4393 86.6417 82.3755 82.5779 77.3625 82.5779C72.3495 82.5779 68.2857 86.6417 68.2857 91.6547C68.2857 96.6677 72.3495 100.731 77.3625 100.731Z" fill="url(#paint2_linear)"/>
<defs>
<linearGradient id="paint0_linear" x1="9.06541" y1="9.95513" x2="95.1237" y2="105.013" gradientUnits="userSpaceOnUse">
<stop offset="0.458333" stop-color="#9E9EB1"/>
<stop offset="1" stop-color="#9595AE" stop-opacity="0.13"/>
</linearGradient>
<linearGradient id="paint1_linear" x1="9.06541" y1="9.95513" x2="95.1237" y2="105.013" gradientUnits="userSpaceOnUse">
<stop offset="0.458333" stop-color="#9E9EB1"/>
<stop offset="1" stop-color="#9595AE" stop-opacity="0.13"/>
</linearGradient>
<linearGradient id="paint2_linear" x1="9.06541" y1="9.95513" x2="95.1237" y2="105.013" gradientUnits="userSpaceOnUse">
<stop offset="0.458333" stop-color="#9E9EB1"/>
<stop offset="1" stop-color="#9595AE" stop-opacity="0.13"/>
</linearGradient>
</defs>
</svg>
