<svg width="110" height="110" viewBox="0 0 110 110" fill="none" xmlns="http://www.w3.org/2000/svg">
<path fill-rule="evenodd" clip-rule="evenodd" d="M36.4411 50.8093C44.9687 50.8093 52.1229 44.9295 54.0709 37.003L81.5386 37.003V28.4039L54.0941 28.4039C52.1803 20.4291 45.0029 14.5021 36.4411 14.5021C28.0859 14.5021 21.0489 20.1467 18.9358 27.8306L9.3064 27.8306V37.003H18.8114C20.7594 44.9295 27.9136 50.8093 36.4411 50.8093ZM36.4411 41.7325C41.4541 41.7325 45.5179 37.6686 45.5179 32.6557C45.5179 27.6427 41.4541 23.5789 36.4411 23.5789C31.4282 23.5789 27.3643 27.6427 27.3643 32.6557C27.3643 37.6686 31.4282 41.7325 36.4411 41.7325Z" fill="url(#paint0_linear)"/>
<path d="M99.9787 37.1941L90.9019 37.1941V28.1173H99.9787V37.1941Z" fill="url(#paint1_linear)"/>
<path fill-rule="evenodd" clip-rule="evenodd" d="M72.7484 96.1933C81.3101 96.1933 88.4875 90.2663 90.4013 82.2915H99.8833V73.6925H90.3782C88.4302 65.7659 81.276 59.8861 72.7484 59.8861C64.2209 59.8861 57.0666 65.7659 55.1186 73.6925H9.3064V82.2915H55.0955C57.0093 90.2663 64.1867 96.1933 72.7484 96.1933ZM72.7484 87.1165C77.7614 87.1165 81.8252 83.0527 81.8252 78.0397C81.8252 73.0267 77.7614 68.9629 72.7484 68.9629C67.7354 68.9629 63.6716 73.0267 63.6716 78.0397C63.6716 83.0527 67.7354 87.1165 72.7484 87.1165Z" fill="url(#paint2_linear)"/>
<defs>
<linearGradient id="paint0_linear" x1="9.08522" y1="14.4085" x2="84.4003" y2="113.289" gradientUnits="userSpaceOnUse">
<stop offset="0.458333" stop-color="#9E9EB1"/>
<stop offset="1" stop-color="#9595AE" stop-opacity="0.13"/>
</linearGradient>
<linearGradient id="paint1_linear" x1="9.08522" y1="14.4085" x2="84.4003" y2="113.289" gradientUnits="userSpaceOnUse">
<stop offset="0.458333" stop-color="#9E9EB1"/>
<stop offset="1" stop-color="#9595AE" stop-opacity="0.13"/>
</linearGradient>
<linearGradient id="paint2_linear" x1="9.08522" y1="14.4085" x2="84.4003" y2="113.289" gradientUnits="userSpaceOnUse">
<stop offset="0.458333" stop-color="#9E9EB1"/>
<stop offset="1" stop-color="#9595AE" stop-opacity="0.13"/>
</linearGradient>
</defs>
</svg>
