<svg width="110" height="110" viewBox="0 0 110 110" fill="none" xmlns="http://www.w3.org/2000/svg">
<path d="M55.233 45.0114L68.7455 31.3598C73.9012 26.1509 82.3037 26.1086 87.5115 31.2654C92.7481 36.4506 92.7561 44.9096 87.5293 50.1046L61.438 76.0372L67.8193 82.4922L93.9279 56.5424C102.73 47.7936 102.717 33.5478 93.8981 24.8155C85.1276 16.1311 70.9771 16.2023 62.2944 24.9745L55.233 32.1086L48.2083 25.0115C39.5053 16.2189 25.3219 16.1476 16.5309 24.8522C7.72042 33.5763 7.674 47.7982 16.4274 56.5796L54.9782 95.2537L54.9789 95.2544L61.3692 88.903L51.0993 78.5144L51.1039 78.5099L22.8559 50.1716C17.6499 44.949 17.6775 36.4906 22.9175 31.3021C28.1458 26.1251 36.5812 26.1675 41.7572 31.3968L55.233 45.0114Z" fill="url(#paint0_linear)"/>
<defs>
<linearGradient id="paint0_linear" x1="9.67151" y1="18.2604" x2="68.0685" y2="95.157" gradientUnits="userSpaceOnUse">
<stop offset="0.458333" stop-color="#9E9EB1"/>
<stop offset="1" stop-color="#9595AE" stop-opacity="0.13"/>
</linearGradient>
</defs>
</svg>
