<svg width="110" height="110" viewBox="0 0 110 110" fill="none" xmlns="http://www.w3.org/2000/svg">
<path fill-rule="evenodd" clip-rule="evenodd" d="M73.4402 45.5789C73.4402 55.6049 65.3125 63.7325 55.2866 63.7325C45.2606 63.7325 37.133 55.6049 37.133 45.5789C37.133 35.553 45.2606 27.4254 55.2866 27.4254C65.3125 27.4254 73.4402 35.553 73.4402 45.5789ZM64.3634 45.5789C64.3634 50.5919 60.2995 54.6557 55.2866 54.6557C50.2736 54.6557 46.2098 50.5919 46.2098 45.5789C46.2098 40.566 50.2736 36.5022 55.2866 36.5022C60.2995 36.5022 64.3634 40.566 64.3634 45.5789Z" fill="url(#paint0_linear)"/>
<path fill-rule="evenodd" clip-rule="evenodd" d="M55.2867 9.27173C35.3479 9.27173 18.9795 25.0465 18.9795 44.7551C18.9795 52.7292 21.6765 59.9865 26.2307 65.7766L26.2851 65.8457L47.5038 90.7718H9.99805V99.9442H77.6441V90.7718H63.0695L84.2882 65.8457L84.3426 65.7766C88.8968 59.9865 91.5938 52.7292 91.5938 44.7551C91.5938 25.0465 75.2254 9.27173 55.2867 9.27173ZM28.0563 44.7551C28.0563 30.2828 40.1346 18.3485 55.2867 18.3485C70.4387 18.3485 82.517 30.2828 82.517 44.7551C82.517 50.5996 80.5645 55.8689 77.2602 60.0988L55.2867 85.9116L33.3131 60.0988C30.0088 55.8689 28.0563 50.5996 28.0563 44.7551Z" fill="url(#paint1_linear)"/>
<path d="M100.575 99.9442H86.8164V90.7718H100.575V99.9442Z" fill="url(#paint2_linear)"/>
<defs>
<linearGradient id="paint0_linear" x1="9.68118" y1="9.16777" x2="98.4525" y2="99.9557" gradientUnits="userSpaceOnUse">
<stop offset="0.458333" stop-color="#9E9EB1"/>
<stop offset="1" stop-color="#9595AE" stop-opacity="0.13"/>
</linearGradient>
<linearGradient id="paint1_linear" x1="9.68118" y1="9.16777" x2="98.4525" y2="99.9557" gradientUnits="userSpaceOnUse">
<stop offset="0.458333" stop-color="#9E9EB1"/>
<stop offset="1" stop-color="#9595AE" stop-opacity="0.13"/>
</linearGradient>
<linearGradient id="paint2_linear" x1="9.68118" y1="9.16777" x2="98.4525" y2="99.9557" gradientUnits="userSpaceOnUse">
<stop offset="0.458333" stop-color="#9E9EB1"/>
<stop offset="1" stop-color="#9595AE" stop-opacity="0.13"/>
</linearGradient>
</defs>
</svg>
