<svg width="110" height="110" viewBox="0 0 110 110" fill="none" xmlns="http://www.w3.org/2000/svg">
<path fill-rule="evenodd" clip-rule="evenodd" d="M18.3634 33.7639V82.1942H81.9009V91.271H13.825C11.3185 91.271 9.28662 89.2391 9.28662 86.7326V23.195C9.28662 20.6885 11.3185 18.6566 13.825 18.6566H95.5162C98.0227 18.6566 100.055 20.6885 100.055 23.195V86.7326C100.055 89.2391 98.0226 91.271 95.5162 91.271H90.9777L90.9778 33.6079L63.1268 56.498C58.2314 60.5214 51.2075 60.6357 46.1838 56.7737L33.6368 47.1281L18.3634 33.7639ZM25.2553 27.7334L39.3971 40.1075L51.7159 49.5776C53.3904 50.8649 55.7317 50.8268 57.3635 49.4857L83.8301 27.7334H25.2553Z" fill="url(#paint0_linear)"/>
<defs>
<linearGradient id="paint0_linear" x1="9.06521" y1="18.5735" x2="73.3856" y2="108.968" gradientUnits="userSpaceOnUse">
<stop offset="0.458333" stop-color="#9E9EB1"/>
<stop offset="1" stop-color="#9595AE" stop-opacity="0.13"/>
</linearGradient>
</defs>
</svg>
