<svg width="110" height="110" viewBox="0 0 110 110" fill="none" xmlns="http://www.w3.org/2000/svg">
<path fill-rule="evenodd" clip-rule="evenodd" d="M77.595 32.6555C77.595 45.1879 67.4354 55.3475 54.903 55.3475C42.3706 55.3475 32.211 45.1879 32.211 32.6555C32.211 20.123 42.3706 9.9635 54.903 9.9635C67.4354 9.9635 77.595 20.123 77.595 32.6555ZM68.5182 32.6555C68.5182 40.1749 62.4225 46.2707 54.903 46.2707C47.3835 46.2707 41.2878 40.1749 41.2878 32.6555C41.2878 25.136 47.3835 19.0403 54.903 19.0403C62.4225 19.0403 68.5182 25.136 68.5182 32.6555Z" fill="url(#paint0_linear)"/>
<path d="M86.6717 75.4771C78.4685 72.8621 64.5089 68.9628 54.9029 68.9628C45.297 68.9628 31.3374 72.8621 23.1342 75.4771V91.6547H77.595L77.595 100.732H14.0574V72.1316C14.0574 70.2281 15.2363 68.5325 17.0398 67.9235C24.0977 65.5405 42.1851 59.886 54.9029 59.886C67.6208 59.886 85.7082 65.5405 92.7661 67.9235C94.5696 68.5325 95.7485 70.2281 95.7485 72.1315V100.732H86.6718L86.6717 75.4771Z" fill="url(#paint1_linear)"/>
<defs>
<linearGradient id="paint0_linear" x1="13.8581" y1="9.85954" x2="99.9536" y2="91.1582" gradientUnits="userSpaceOnUse">
<stop offset="0.458333" stop-color="#9E9EB1"/>
<stop offset="1" stop-color="#9595AE" stop-opacity="0.13"/>
</linearGradient>
<linearGradient id="paint1_linear" x1="13.8581" y1="9.85954" x2="99.9536" y2="91.1582" gradientUnits="userSpaceOnUse">
<stop offset="0.458333" stop-color="#9E9EB1"/>
<stop offset="1" stop-color="#9595AE" stop-opacity="0.13"/>
</linearGradient>
</defs>
</svg>
