<svg width="110" height="110" viewBox="0 0 110 110" fill="none" xmlns="http://www.w3.org/2000/svg">
<path d="M54.9785 64.4243C55.7853 64.4243 56.5676 64.319 57.3123 64.1215L64.1369 71.025C61.4484 72.5989 58.3188 73.5011 54.9785 73.5011C44.9526 73.5011 36.8249 65.3735 36.8249 55.3475C36.8249 45.3216 44.9526 37.1939 54.9785 37.1939C65.0045 37.1939 73.1321 45.3216 73.1321 55.3475C73.1321 58.7341 72.2048 61.9041 70.5901 64.6175L63.7484 57.6967C63.9486 56.9474 64.0553 56.1599 64.0553 55.3475C64.0553 50.3345 59.9915 46.2707 54.9785 46.2707C49.9655 46.2707 45.9017 50.3345 45.9017 55.3475C45.9017 60.3605 49.9655 64.4243 54.9785 64.4243Z" fill="url(#paint0_linear)"/>
<path fill-rule="evenodd" clip-rule="evenodd" d="M66.0066 12.5184L68.3853 22.0331C71.5132 23.3007 74.4232 24.9937 77.0435 27.0404L86.4818 24.3405C88.4841 23.7678 90.6191 24.6312 91.6604 26.4347L98.4382 38.1742C99.4795 39.9778 99.1597 42.2585 97.6626 43.7061L90.6068 50.5284C90.8329 52.162 90.9498 53.8305 90.9498 55.5264C90.9498 57.2225 90.8329 58.8914 90.6067 60.5254L97.6629 67.348C99.16 68.7956 99.4798 71.0764 98.4385 72.8799L91.6607 84.6194C90.6194 86.4229 88.4843 87.2864 86.4821 86.7136L77.0423 84.0132C74.4089 86.07 71.4829 87.7696 68.3372 89.0391L65.9029 98.5588C65.3892 100.568 63.5794 101.973 61.506 101.973H48.0486C45.9661 101.973 44.1508 100.556 43.6457 98.5352L41.267 89.0204C38.1393 87.7531 35.2294 86.0604 32.6092 84.0141L23.1702 86.7142C21.1679 87.2869 19.0329 86.4235 17.9916 84.62L11.2138 72.8804C10.1725 71.0769 10.4923 68.7962 11.9894 67.3486L19.044 60.5274C18.8177 58.8928 18.7007 57.2233 18.7007 55.5264C18.7007 53.8298 18.8176 52.1605 19.0439 50.5262L11.9893 43.705C10.4922 42.2574 10.1724 39.9766 11.2136 38.1731L17.9915 26.4336C19.0327 24.6301 21.1678 23.7666 23.17 24.3394L32.6084 27.0393C35.2287 24.9928 38.1387 23.3 41.2666 22.0325L43.6451 12.5184C44.1502 10.498 45.9655 9.08069 48.048 9.08069H61.6037C63.6862 9.08069 65.5015 10.498 66.0066 12.5184ZM60.6988 28.7119L64.9761 30.4453C67.3126 31.3922 69.491 32.6588 71.4562 34.1938L75.0976 37.038L85.5714 34.0418L88.8058 39.6439L80.9839 47.207L81.6158 51.7727C81.785 52.9952 81.873 54.248 81.873 55.5264C81.873 56.805 81.7849 58.058 81.6157 59.2808L80.9836 63.8466L88.806 71.4102L85.5717 77.0123L75.0966 74.0158L71.4553 76.8597C69.4803 78.4022 67.2899 79.6736 64.9402 80.6219L60.6811 82.3408L57.9821 92.8961H51.5921L48.9534 82.3412L44.6757 80.6079C42.3393 79.6613 40.161 78.395 38.196 76.8603L34.5547 74.0166L24.0806 77.0129L20.8462 71.4108L28.6674 63.8484L28.035 59.2823C27.8656 58.0591 27.7775 56.8055 27.7775 55.5264C27.7775 54.2474 27.8656 52.9941 28.0349 51.7711L28.6672 47.2051L20.8461 39.6428L24.0805 34.0407L34.554 37.0368L38.1953 34.1929C40.1605 32.6581 42.3389 31.3917 44.6754 30.4449L48.953 28.7116L51.5915 18.1575H58.0602L60.6988 28.7119Z" fill="url(#paint1_linear)"/>
<defs>
<linearGradient id="paint0_linear" x1="10.3897" y1="8.9743" x2="98.9001" y2="89.6988" gradientUnits="userSpaceOnUse">
<stop offset="0.458333" stop-color="#9E9EB1"/>
<stop offset="1" stop-color="#9595AE" stop-opacity="0.13"/>
</linearGradient>
<linearGradient id="paint1_linear" x1="10.3897" y1="8.9743" x2="98.9001" y2="89.6988" gradientUnits="userSpaceOnUse">
<stop offset="0.458333" stop-color="#9E9EB1"/>
<stop offset="1" stop-color="#9595AE" stop-opacity="0.13"/>
</linearGradient>
</defs>
</svg>
