<svg width="110" height="110" viewBox="0 0 110 110" fill="none" xmlns="http://www.w3.org/2000/svg">
<path d="M78.0921 26.7187C62.663 13.9117 39.773 16.0373 26.966 31.4665C14.159 46.8957 16.2847 69.7856 31.7138 82.5926L25.9165 89.5769C6.63008 73.5681 3.973 44.9557 19.9818 25.6692C35.9905 6.38277 64.603 3.72568 83.8894 19.7345L78.0921 26.7187Z" fill="url(#paint0_linear)"/>
<path d="M74.6389 85.1421C77.6526 83.1898 80.4255 80.7538 82.84 77.845C83.5955 76.9348 84.299 75.9987 84.9509 75.0402L91.4294 81.5936C90.9169 82.2872 90.3819 82.9704 89.8242 83.6423C87.2267 86.7716 84.2974 89.4631 81.1299 91.7081L74.6389 85.1421Z" fill="url(#paint1_linear)"/>
<path d="M65.9185 89.2563C54.5281 92.8708 41.5919 90.792 31.7138 82.5926L25.9165 89.5769C39.5071 100.858 57.7286 102.87 72.9076 96.3262L65.9185 89.2563Z" fill="url(#paint2_linear)"/>
<path d="M96.2066 73.4906L89.2502 66.4539C94.0087 52.5927 90.0374 36.6339 78.0921 26.7187L83.8894 19.7345C100.011 33.1161 104.513 55.3043 96.2066 73.4906Z" fill="url(#paint3_linear)"/>
<path d="M50.3645 27.4253H59.4413V50.1173H77.5949V59.1941L50.3645 59.1941V27.4253Z" fill="url(#paint4_linear)"/>
<defs>
<linearGradient id="paint0_linear" x1="9.29753" y1="9.16781" x2="91.4005" y2="95.8842" gradientUnits="userSpaceOnUse">
<stop offset="0.458333" stop-color="#9E9EB1"/>
<stop offset="1" stop-color="#9595AE" stop-opacity="0.13"/>
</linearGradient>
<linearGradient id="paint1_linear" x1="9.29753" y1="9.16781" x2="91.4005" y2="95.8842" gradientUnits="userSpaceOnUse">
<stop offset="0.458333" stop-color="#9E9EB1"/>
<stop offset="1" stop-color="#9595AE" stop-opacity="0.13"/>
</linearGradient>
<linearGradient id="paint2_linear" x1="9.29753" y1="9.16781" x2="91.4005" y2="95.8842" gradientUnits="userSpaceOnUse">
<stop offset="0.458333" stop-color="#9E9EB1"/>
<stop offset="1" stop-color="#9595AE" stop-opacity="0.13"/>
</linearGradient>
<linearGradient id="paint3_linear" x1="9.29753" y1="9.16781" x2="91.4005" y2="95.8842" gradientUnits="userSpaceOnUse">
<stop offset="0.458333" stop-color="#9E9EB1"/>
<stop offset="1" stop-color="#9595AE" stop-opacity="0.13"/>
</linearGradient>
<linearGradient id="paint4_linear" x1="9.29753" y1="9.16781" x2="91.4005" y2="95.8842" gradientUnits="userSpaceOnUse">
<stop offset="0.458333" stop-color="#9E9EB1"/>
<stop offset="1" stop-color="#9595AE" stop-opacity="0.13"/>
</linearGradient>
</defs>
</svg>
