<svg width="110" height="110" viewBox="0 0 110 110" fill="none" xmlns="http://www.w3.org/2000/svg">
<path d="M64.02 56.6331C65.0555 52.8561 63.547 48.6952 60.05 46.5245C55.7909 43.8806 50.195 45.1901 47.5511 49.4492C44.9073 53.7083 46.2167 59.3042 50.4758 61.9481C52.6735 63.3122 55.227 63.6239 57.5473 63.0209L64.3837 69.9364C58.7691 73.1917 51.5878 73.3217 45.6887 69.6599C37.1705 64.3722 34.5516 53.1803 39.8393 44.6621C45.127 36.1439 56.3189 33.525 64.8371 38.8127C73.2662 44.045 75.9187 55.0586 70.85 63.5421L64.02 56.6331Z" fill="url(#paint0_linear)"/>
<path fill-rule="evenodd" clip-rule="evenodd" d="M103.981 56.7696C104.556 55.6689 104.556 54.4106 103.981 53.3099C100.515 46.6815 86.0701 23.271 54.9029 23.271C23.7357 23.271 9.29031 46.6815 5.8249 53.3099C5.24945 54.4106 5.24945 55.6689 5.8249 56.7696C9.29031 63.3981 23.7357 86.8086 54.9029 86.8086C86.0701 86.8086 100.515 63.3981 103.981 56.7696ZM94.5321 55.0398C89.9483 47.5281 77.8293 32.3478 54.9029 32.3478C31.9765 32.3478 19.8574 47.5281 15.2737 55.0398C19.8574 62.5515 31.9765 77.7318 54.9029 77.7318C77.8293 77.7318 89.9483 62.5515 94.5321 55.0398Z" fill="url(#paint1_linear)"/>
<defs>
<linearGradient id="paint0_linear" x1="5.15177" y1="23.1982" x2="61.2258" y2="106.585" gradientUnits="userSpaceOnUse">
<stop offset="0.458333" stop-color="#9E9EB1"/>
<stop offset="1" stop-color="#9595AE" stop-opacity="0.13"/>
</linearGradient>
<linearGradient id="paint1_linear" x1="5.15177" y1="23.1982" x2="61.2258" y2="106.585" gradientUnits="userSpaceOnUse">
<stop offset="0.458333" stop-color="#9E9EB1"/>
<stop offset="1" stop-color="#9595AE" stop-opacity="0.13"/>
</linearGradient>
</defs>
</svg>
