<svg width="110" height="110" viewBox="0 0 110 110" fill="none" xmlns="http://www.w3.org/2000/svg">
<path d="M77.6704 73.1929V59.5777H68.5936V73.1929H77.6704Z" fill="url(#paint0_linear)"/>
<path fill-rule="evenodd" clip-rule="evenodd" d="M9.58911 45.8671H9.59521C9.59488 45.8989 9.59472 45.9307 9.59472 45.9626V91.3466C9.59472 96.3595 13.6585 100.423 18.6715 100.423H91.2859C96.2989 100.423 100.363 96.3595 100.363 91.3466V45.9626C100.363 40.9496 96.2989 36.8858 91.2859 36.8858L86.5085 36.8858V36.8836L77.4711 36.8836V36.8858H18.7276V27.9046L86.5085 27.9044V18.9233H18.7276C13.7364 18.9233 9.58911 22.9554 9.58911 27.9156V45.8671ZM18.6715 45.9626H91.2859V91.3466H18.6715L18.6715 45.9626Z" fill="url(#paint1_linear)"/>
<defs>
<linearGradient id="paint0_linear" x1="9.36769" y1="18.83" x2="85.5888" y2="110.523" gradientUnits="userSpaceOnUse">
<stop offset="0.458333" stop-color="#9E9EB1"/>
<stop offset="1" stop-color="#9595AE" stop-opacity="0.13"/>
</linearGradient>
<linearGradient id="paint1_linear" x1="9.36769" y1="18.83" x2="85.5888" y2="110.523" gradientUnits="userSpaceOnUse">
<stop offset="0.458333" stop-color="#9E9EB1"/>
<stop offset="1" stop-color="#9595AE" stop-opacity="0.13"/>
</linearGradient>
</defs>
</svg>
